<mxfile host="app.diagrams.net" agent="Mozilla/5.0 (Windows NT 10.0; Win64; x64) AppleWebKit/537.36 (KHTML, like Gecko) Chrome/130.0.0.0 Safari/537.36" version="24.8.6">
  <diagram name="第 1 页" id="dD9NfFSiqkWVlTOTHmLR">
    <mxGraphModel dx="939" dy="477" grid="1" gridSize="10" guides="1" tooltips="1" connect="1" arrows="1" fold="1" page="1" pageScale="1" pageWidth="827" pageHeight="1169" math="0" shadow="0">
      <root>
        <mxCell id="0" />
        <mxCell id="1" parent="0" />
        <mxCell id="1Y3tFdOGIjcgksJo4li3-1" value="&lt;div&gt;需求驱动代码版本管理&lt;/div&gt;" style="rounded=1;whiteSpace=wrap;html=1;" vertex="1" parent="1">
          <mxGeometry x="110" y="450" width="130" height="90" as="geometry" />
        </mxCell>
        <mxCell id="1Y3tFdOGIjcgksJo4li3-2" value="&lt;div&gt;代码版本管理引导SQL脚本管理&lt;/div&gt;" style="rounded=1;whiteSpace=wrap;html=1;" vertex="1" parent="1">
          <mxGeometry x="320" y="450" width="130" height="90" as="geometry" />
        </mxCell>
        <mxCell id="1Y3tFdOGIjcgksJo4li3-3" value="&lt;div&gt;SQL管理保障需求落地&lt;/div&gt;" style="rounded=1;whiteSpace=wrap;html=1;" vertex="1" parent="1">
          <mxGeometry x="530" y="450" width="130" height="90" as="geometry" />
        </mxCell>
        <mxCell id="1Y3tFdOGIjcgksJo4li3-5" value="" style="shape=singleArrow;whiteSpace=wrap;html=1;arrowWidth=0.4267656962076842;arrowSize=0.4304607815212686;" vertex="1" parent="1">
          <mxGeometry x="250" y="482.5" width="60" height="25" as="geometry" />
        </mxCell>
        <mxCell id="1Y3tFdOGIjcgksJo4li3-6" value="" style="shape=singleArrow;whiteSpace=wrap;html=1;arrowWidth=0.4267656962076842;arrowSize=0.4304607815212686;" vertex="1" parent="1">
          <mxGeometry x="460" y="482.5" width="60" height="25" as="geometry" />
        </mxCell>
      </root>
    </mxGraphModel>
  </diagram>
</mxfile>
